Coordinates
version=1
nRows=17
nColumns=38
inDegrees=no

Units are S.I. units (second, meters, Newtons, ...)
If the header above contains a line with 'inDegrees', this indicates whether rotational values are in degrees (yes) or radians (no).

endheader
time	pelvis_tilt	pelvis_list	pelvis_rotation	pelvis_tx	pelvis_ty	pelvis_tz	hip_flexion_r	hip_adduction_r	hip_rotation_r	knee_angle_r	ankle_angle_r	subtalar_angle_r	mtp_angle_r	hip_flexion_l	hip_adduction_l	hip_rotation_l	knee_angle_l	ankle_angle_l	subtalar_angle_l	mtp_angle_l	lumbar_extension	lumbar_bending	lumbar_rotation	arm_flex_r	arm_add_r	arm_rot_r	elbow_flex_r	pro_sup_r	wrist_flex_r	wrist_dev_r	arm_flex_l	arm_add_l	arm_rot_l	elbow_flex_l	pro_sup_l	wrist_flex_l	wrist_dev_l
0.49	-0.376604	1.51818	-1.21405	0.689859	1.00003	1.02313	-0.158259	0.0669565	-0.132753	0.473564	-0.00578034	0	0	0.328983	0.00614366	-0.321647	0.318726	-0.190234	0	0	-0.391395	0.0641226	0.106766	0.0317008	-0.380394	0.949455	0.383232	0.767355	0	0	-0.00939796	-0.234704	0.500572	0.413361	1.26017	0	0
0.5	-0.316872	1.51847	-1.27729	0.689945	0.99018	1.02148	-0.166353	0.0616865	-0.133323	0.479202	-0.00277635	0	0	0.331063	0.0106224	-0.331365	0.319102	-0.190537	0	0	-0.39334	0.0588542	0.10733	0.0318702	-0.379958	0.947948	0.385202	0.767374	0	0	-0.0120802	-0.236086	0.492802	0.417584	1.26594	0	0
0.51	-0.256251	1.51776	-1.34274	0.689961	0.980372	1.01997	-0.174324	0.0566327	-0.129867	0.48699	4.95729e-05	0	0	0.331767	0.0140766	-0.341101	0.322975	-0.191317	0	0	-0.396802	0.0531412	0.10891	0.0323509	-0.379767	0.945744	0.387849	0.767727	0	0	-0.0153095	-0.237881	0.482576	0.423646	1.27339	0	0
0.52	-0.204134	1.51805	-1.39875	0.689996	0.970213	1.01836	-0.181534	0.0522113	-0.126289	0.494394	0.00201901	0	0	0.333223	0.0171488	-0.348011	0.330312	-0.191946	0	0	-0.398307	0.0477086	0.109655	0.0320992	-0.378534	0.943214	0.389307	0.768575	0	0	-0.019614	-0.240176	0.472172	0.430125	1.28005	0	0
0.53	-0.16027	1.51963	-1.44485	0.690071	0.95963	1.01665	-0.188206	0.0486976	-0.123435	0.500435	0.00318447	0	0	0.33558	0.019817	-0.351311	0.340711	-0.192169	0	0	-0.397366	0.043037	0.108984	0.0310269	-0.375864	0.940516	0.388817	0.770062	0	0	-0.0242925	-0.242447	0.462795	0.435292	1.28662	0	0
0.54	-0.126492	1.52228	-1.47992	0.690207	0.948646	1.01489	-0.194209	0.045606	-0.121323	0.506138	0.00305062	0	0	0.338215	0.0217533	-0.351081	0.353639	-0.192112	0	0	-0.394206	0.0393433	0.107964	0.028968	-0.372483	0.938129	0.386981	0.771719	0	0	-0.0286332	-0.244345	0.456272	0.438158	1.29182	0	0
0.55	-0.111324	1.52461	-1.49772	0.690214	0.937346	1.01317	-0.200533	0.0432129	-0.11823	0.512026	0.00155942	0	0	0.339236	0.0217562	-0.348496	0.369769	-0.191606	0	0	-0.390653	0.0361304	0.108243	0.0264677	-0.368705	0.935731	0.384453	0.774829	0	0	-0.0340135	-0.246189	0.448662	0.441485	1.2983	0	0
0.56	-0.112721	1.52675	-1.50006	0.690144	0.925747	1.01142	-0.207043	0.0414941	-0.113862	0.518077	-0.00108029	0	0	0.339537	0.0204267	-0.345646	0.389317	-0.194197	0	0	-0.386525	0.0332842	0.109879	0.0231803	-0.365402	0.933532	0.382672	0.778545	0	0	-0.0408029	-0.248678	0.441071	0.446265	1.30382	0	0
0.57	-0.0891848	1.52851	-1.5282	0.690055	0.913963	1.00987	-0.213531	0.0382752	-0.108942	0.525245	-0.00496245	0	0	0.339433	0.0199068	-0.344241	0.410328	-0.20391	0	0	-0.382759	0.0290913	0.111979	0.0197887	-0.361649	0.931216	0.380285	0.782093	0	0	-0.0478857	-0.25147	0.433852	0.451241	1.30847	0	0
0.58	0.0207317	1.52955	-1.64291	0.690048	0.90221	1.00888	-0.219054	0.0307417	-0.103882	0.535573	-0.0107995	0	0	0.338492	0.0228211	-0.345973	0.425341	-0.2213	0	0	-0.380487	0.0213234	0.113203	0.0176487	-0.356077	0.929223	0.375067	0.785631	0	0	-0.0532532	-0.254053	0.427888	0.453915	1.31281	0	0
0.59	0.186127	1.52891	-1.81235	0.690164	0.890547	1.00846	-0.223612	0.0208042	-0.0978594	0.549005	-0.0192603	0	0	0.337845	0.0276299	-0.348371	0.43852	-0.235335	0	0	-0.379884	0.0113848	0.113162	0.016705	-0.349149	0.927129	0.367897	0.788728	0	0	-0.0567426	-0.256383	0.423139	0.45451	1.317	0	0
0.6	0.352011	1.52694	-1.9805	0.690417	0.878712	1.00841	-0.227229	0.0109962	-0.0912618	0.564326	-0.0301769	0	0	0.337479	0.0327078	-0.347813	0.454581	-0.241889	0	0	-0.379256	0.00157846	0.111455	0.0156948	-0.341613	0.924827	0.35999	0.791843	0	0	-0.0592906	-0.258404	0.419577	0.453118	1.32138	0	0
0.61	0.483622	1.52298	-2.11301	0.690869	0.86678	1.00878	-0.230348	0.00178274	-0.0834202	0.582541	-0.0440284	0	0	0.334184	0.0382062	-0.342747	0.471805	-0.243216	0	0	-0.379869	-0.0073241	0.109171	0.0144854	-0.33431	0.921994	0.352242	0.794643	0	0	-0.0606582	-0.25998	0.417349	0.450426	1.32553	0	0
0.62	0.580653	1.5169	-2.20956	0.691606	0.854965	1.00965	-0.23247	-0.00756107	-0.0743456	0.60474	-0.0614909	0	0	0.327166	0.0455013	-0.334943	0.486896	-0.242438	0	0	-0.382754	-0.0157775	0.10652	0.0133005	-0.327649	0.918536	0.344998	0.79685	0	0	-0.0600639	-0.261019	0.416732	0.446506	1.329	0	0
0.63	0.639799	1.51078	-2.26706	0.692496	0.843287	1.01075	-0.231922	-0.0153129	-0.0634827	0.631088	-0.0826081	0	0	0.318534	0.0532672	-0.324877	0.499943	-0.241758	0	0	-0.38631	-0.0226418	0.104111	0.0118039	-0.321915	0.914554	0.338899	0.798642	0	0	-0.0583682	-0.261884	0.41777	0.44234	1.33206	0	0
0.64	0.683964	1.50676	-2.30898	0.693512	0.831677	1.01179	-0.226243	-0.0212357	-0.0513598	0.661863	-0.107539	0	0	0.310017	0.0594834	-0.31647	0.509075	-0.241227	0	0	-0.38804	-0.0273979	0.10218	0.00971105	-0.317362	0.910698	0.334299	0.800386	0	0	-0.0565244	-0.262509	0.419819	0.43799	1.33454	0	0
0.65	0.729605	1.50516	-2.35238	0.694662	0.820093	1.01269	-0.214368	-0.0262505	-0.0383695	0.697499	-0.139905	0	0	0.301666	0.0638195	-0.311385	0.51319	-0.239664	0	0	-0.386975	-0.0304589	0.101129	0.00678402	-0.313648	0.906264	0.330433	0.802093	0	0	-0.0546476	-0.262616	0.42281	0.43281	1.33606	0	0
